# xmcd
#
# Track frame offsets:
#	183
#	18723
#	37213
#	56575
#
# Disc length: 983 seconds
#
# Revision: 3
# Processed by: cddbd v1.5.2PL0 Copyright (c) Steve Scherf et al.
# Submitted via: audiograbber 1.83.01
#
DISCID=3403d504
DTITLE=Hothouse Flowers - One Tongue CDS
DYEAR=1993
DGENRE=Rock
TTITLE0=One Tongue
TTITLE1=Same Song
TTITLE2=Wish You Everything
TTITLE3=The Rain
EXTD=
EXTT0=
EXTT1=
EXTT2=
EXTT3=
PLAYORDER=
